<svg width="1266" height="693" xmlns="http://www.w3.org/2000/svg" xmlns:xlink="http://www.w3.org/1999/xlink" overflow="hidden"><defs><clipPath id="clip0"><rect x="-5" y="21" width="1266" height="693"/></clipPath></defs><g clip-path="url(#clip0)" transform="translate(5 -21)"><rect x="51.5001" y="93.5001" width="118" height="529" stroke="#000000" stroke-width="1.33333" stroke-miterlimit="8" stroke-opacity="0.988235" fill="#FFFFFF"/><rect x="51.5001" y="93.5001" width="118" height="106" stroke="#2F528F" stroke-width="1.33333" stroke-miterlimit="8" fill="#4472C4"/><text font-family="JetBrains Mono,JetBrains Mono_MSFontService,sans-serif" font-weight="500" font-size="21" transform="translate(84.3226 127)">Trap<tspan x="-19.2467" y="25">Context</tspan><tspan x="19.2533" y="51">A</tspan></text><rect x="51.5001" y="199.5" width="118" height="242" stroke="#2F528F" stroke-width="1.33333" stroke-miterlimit="8" fill="#C55A11"/><text font-family="JetBrains Mono,JetBrains Mono_MSFontService,sans-serif" font-weight="500" font-size="21" transform="translate(84.3226 276)">Trap<tspan x="-19.2467" y="25">Handler</tspan><tspan x="0" y="51">Call</tspan><tspan x="-6.41333" y="77">Stack</tspan><tspan x="19.2533" y="102">A</tspan></text><rect x="181.5" y="93.5001" width="118" height="529" stroke="#000000" stroke-width="1.33333" stroke-miterlimit="8" stroke-opacity="0.988235" fill="#FFFFFF"/><rect x="182.5" y="93.5001" width="117" height="106" stroke="#2F528F" stroke-width="1.33333" stroke-miterlimit="8" fill="#4472C4"/><text font-family="JetBrains Mono,JetBrains Mono_MSFontService,sans-serif" font-weight="500" font-size="21" transform="translate(214.456 127)">Trap<tspan x="-19.2467" y="25">Context</tspan><tspan x="19.2533" y="51">B</tspan></text><rect x="182.5" y="199.5" width="117" height="169" stroke="#2F528F" stroke-width="1.33333" stroke-miterlimit="8" fill="#FFC000"/><text font-family="JetBrains Mono,JetBrains Mono_MSFontService,sans-serif" font-weight="500" font-size="21" transform="translate(214.456 239)">Trap<tspan x="-19.2467" y="25">Handler</tspan><tspan x="0" y="51">Call</tspan><tspan x="-6.41335" y="77">Stack</tspan><tspan x="19.2533" y="102">B</tspan></text><rect x="182.5" y="368.5" width="117" height="106" stroke="#2F528F" stroke-width="1.33333" stroke-miterlimit="8" fill="#00B050"/><text font-family="JetBrains Mono,JetBrains Mono_MSFontService,sans-serif" font-weight="500" font-size="21" transform="translate(195.209 415)">task_cx<tspan x="38.5" y="25">B</tspan></text><path d="M7.62986e-07-0.333333 39.2-0.333244 39.2 0.333423-7.62986e-07 0.333333ZM37.8667-3.99991 45.8667 0.000104987 37.8667 4.00009Z" transform="matrix(-1 0 0 1 51.3667 441.5)"/><text font-family="Consolas,Consolas_MSFontService,sans-serif" font-weight="400" font-size="24" transform="translate(10.7087 428)">sp</text><rect x="353.5" y="93.5001" width="117" height="529" stroke="#000000" stroke-width="1.33333" stroke-miterlimit="8" stroke-opacity="0.988235" fill="#FFFFFF"/><rect x="353.5" y="93.5001" width="117" height="106" stroke="#2F528F" stroke-width="1.33333" stroke-miterlimit="8" fill="#4472C4"/><text font-family="JetBrains Mono,JetBrains Mono_MSFontService,sans-serif" font-weight="500" font-size="21" transform="translate(386.021 127)">Trap<tspan x="-19.2466" y="25">Context</tspan><tspan x="19.2534" y="51">A</tspan></text><rect x="353.5" y="199.5" width="117" height="242" stroke="#2F528F" stroke-width="1.33333" stroke-miterlimit="8" fill="#C55A11"/><text font-family="JetBrains Mono,JetBrains Mono_MSFontService,sans-serif" font-weight="500" font-size="21" transform="translate(386.021 276)">Trap<tspan x="-19.2466" y="25">Handler</tspan><tspan x="0" y="51">Call</tspan><tspan x="-6.41333" y="77">Stack</tspan><tspan x="19.2534" y="102">A</tspan></text><rect x="483.5" y="93.5001" width="117" height="529" stroke="#000000" stroke-width="1.33333" stroke-miterlimit="8" stroke-opacity="0.988235" fill="#FFFFFF"/><rect x="483.5" y="93.5001" width="117" height="106" stroke="#2F528F" stroke-width="1.33333" stroke-miterlimit="8" fill="#4472C4"/><text font-family="JetBrains Mono,JetBrains Mono_MSFontService,sans-serif" font-weight="500" font-size="21" transform="translate(516.155 127)">Trap<tspan x="-19.2467" y="25">Context</tspan><tspan x="19.2533" y="51">B</tspan></text><rect x="483.5" y="199.5" width="117" height="169" stroke="#2F528F" stroke-width="1.33333" stroke-miterlimit="8" fill="#FFC000"/><text font-family="JetBrains Mono,JetBrains Mono_MSFontService,sans-serif" font-weight="500" font-size="21" transform="translate(516.155 239)">Trap<tspan x="-19.2467" y="25">Handler</tspan><tspan x="0" y="51">Call</tspan><tspan x="-6.41336" y="77">Stack</tspan><tspan x="19.2533" y="102">B</tspan></text><rect x="483.5" y="368.5" width="117" height="106" stroke="#2F528F" stroke-width="1.33333" stroke-miterlimit="8" fill="#00B050"/><text font-family="JetBrains Mono,JetBrains Mono_MSFontService,sans-serif" font-weight="500" font-size="21" transform="translate(496.908 415)">task_cx<tspan x="38.5" y="25">B</tspan></text><rect x="353.5" y="441.5" width="117" height="106" stroke="#2F528F" stroke-width="1.33333" stroke-miterlimit="8" fill="#00B050"/><text font-family="JetBrains Mono,JetBrains Mono_MSFontService,sans-serif" font-weight="500" font-size="21" transform="translate(366.607 488)">task_cx<tspan x="38.5" y="25">A</tspan></text><path d="M7.62986e-07-0.333333 39.2-0.333244 39.2 0.333423-7.62986e-07 0.333333ZM37.8667-3.99991 45.8667 0.000104987 37.8667 4.00009Z" transform="matrix(-1 0 0 1 353.367 547.5)"/><text font-family="JetBrains Mono,JetBrains Mono_MSFontService,sans-serif" font-weight="500" font-size="21" transform="translate(318.807 533)">sp</text><rect x="653.5" y="93.5001" width="117" height="529" stroke="#000000" stroke-width="1.33333" stroke-miterlimit="8" stroke-opacity="0.988235" fill="#FFFFFF"/><rect x="653.5" y="93.5001" width="117" height="106" stroke="#2F528F" stroke-width="1.33333" stroke-miterlimit="8" fill="#4472C4"/><text font-family="JetBrains Mono,JetBrains Mono_MSFontService,sans-serif" font-weight="500" font-size="21" transform="translate(685.839 127)">Trap<tspan x="-19.2466" y="25">Context</tspan><tspan x="19.2534" y="51">A</tspan></text><rect x="653.5" y="199.5" width="117" height="242" stroke="#2F528F" stroke-width="1.33333" stroke-miterlimit="8" fill="#C55A11"/><text font-family="JetBrains Mono,JetBrains Mono_MSFontService,sans-serif" font-weight="500" font-size="21" transform="translate(685.839 276)">Trap<tspan x="-19.2466" y="25">Handler</tspan><tspan x="0" y="51">Call</tspan><tspan x="-6.41333" y="77">Stack</tspan><tspan x="19.2534" y="102">A</tspan></text><rect x="783.5" y="93.5001" width="117" height="529" stroke="#000000" stroke-width="1.33333" stroke-miterlimit="8" stroke-opacity="0.988235" fill="#FFFFFF"/><rect x="783.5" y="93.5001" width="117" height="106" stroke="#2F528F" stroke-width="1.33333" stroke-miterlimit="8" fill="#4472C4"/><text font-family="JetBrains Mono,JetBrains Mono_MSFontService,sans-serif" font-weight="500" font-size="21" transform="translate(815.972 127)">Trap<tspan x="-19.2467" y="25">Context</tspan><tspan x="19.2533" y="51">B</tspan></text><rect x="783.5" y="199.5" width="117" height="169" stroke="#2F528F" stroke-width="1.33333" stroke-miterlimit="8" fill="#FFC000"/><text font-family="JetBrains Mono,JetBrains Mono_MSFontService,sans-serif" font-weight="500" font-size="21" transform="translate(815.972 239)">Trap<tspan x="-19.2467" y="25">Handler</tspan><tspan x="0" y="51">Call</tspan><tspan x="-6.41333" y="77">Stack</tspan><tspan x="19.2533" y="102">B</tspan></text><rect x="783.5" y="368.5" width="117" height="106" stroke="#2F528F" stroke-width="1.33333" stroke-miterlimit="8" fill="#00B050"/><text font-family="JetBrains Mono,JetBrains Mono_MSFontService,sans-serif" font-weight="500" font-size="21" transform="translate(796.725 415)">task_cx<tspan x="38.5" y="25">B</tspan></text><rect x="653.5" y="441.5" width="117" height="106" stroke="#2F528F" stroke-width="1.33333" stroke-miterlimit="8" fill="#00B050"/><text font-family="JetBrains Mono,JetBrains Mono_MSFontService,sans-serif" font-weight="500" font-size="21" transform="translate(666.424 488)">task_cx<tspan x="38.5" y="25">A</tspan><tspan font-family="Cambria Math,Cambria Math_MSFontService,sans-serif" font-weight="400" font-size="24" x="-286.281" y="176">a.task_cx_ptr</tspan><tspan font-family="Cambria Math,Cambria Math_MSFontService,sans-serif" font-weight="400" font-size="24" x="-148.781" y="176">←</tspan><tspan font-family="Cambria Math,Cambria Math_MSFontService,sans-serif" font-weight="400" font-size="24" x="-121.948" y="176">sp</tspan><tspan font-family="Consolas,Consolas_MSFontService,sans-serif" font-weight="400" font-size="24" x="-333.028" y="204">or </tspan><tspan font-family="Cambria Math,Cambria Math_MSFontService,sans-serif" font-weight="400" font-size="24" x="-293.528" y="204">∗(a.task_cx_ptr2)</tspan><tspan font-family="Cambria Math,Cambria Math_MSFontService,sans-serif" font-weight="400" font-size="24" x="-111.028" y="204">←</tspan><tspan font-family="Cambria Math,Cambria Math_MSFontService,sans-serif" font-weight="400" font-size="24" x="-84.1943" y="204">sp</tspan></text><path d="M900.5 474.167 935.433 474.167 935.433 474.833 900.5 474.833ZM934.1 470.5 942.1 474.5 934.1 478.5Z"/><text font-family="JetBrains Mono,JetBrains Mono_MSFontService,sans-serif" font-weight="500" font-size="21" transform="translate(905.965 460)">sp</text><rect x="103.5" y="23.5001" width="131" height="56" stroke="#2F528F" stroke-width="1.33333" stroke-miterlimit="8" fill="#7030A0"/><text font-family="JetBrains Mono,JetBrains Mono_MSFontService,sans-serif" font-weight="500" font-size="21" transform="translate(149.325 58)">CPU</text><rect x="409.5" y="23.5001" width="131" height="56" stroke="#2F528F" stroke-width="1.33333" stroke-miterlimit="8" fill="#7030A0"/><text font-family="JetBrains Mono,JetBrains Mono_MSFontService,sans-serif" font-weight="500" font-size="21" transform="translate(454.925 58)">CPU</text><path d="M0-1 80.635-1 80.635 443.867 62.3013 443.867 62.3013 441.867 79.635 441.867 78.635 442.867 78.635 0 79.635 1 0 1ZM63.6346 446.867 55.6346 442.867 63.6346 438.867Z" transform="matrix(-1 1.22465e-16 1.22465e-16 1 408.635 51)"/><rect x="704.5" y="23.5001" width="132" height="56" stroke="#2F528F" stroke-width="1.33333" stroke-miterlimit="8" fill="#7030A0"/><text font-family="JetBrains Mono,JetBrains Mono_MSFontService,sans-serif" font-weight="500" font-size="21" transform="translate(750.673 58)">CPU</text><rect x="963.5" y="93.5001" width="117" height="529" stroke="#000000" stroke-width="1.33333" stroke-miterlimit="8" stroke-opacity="0.988235" fill="#FFFFFF"/><rect x="963.5" y="93.5001" width="117" height="106" stroke="#2F528F" stroke-width="1.33333" stroke-miterlimit="8" fill="#4472C4"/><text font-family="JetBrains Mono,JetBrains Mono_MSFontService,sans-serif" font-weight="500" font-size="21" transform="translate(995.867 127)">Trap<tspan x="-19.2467" y="25">Context</tspan><tspan x="19.2533" y="51">A</tspan></text><rect x="963.5" y="199.5" width="117" height="242" stroke="#2F528F" stroke-width="1.33333" stroke-miterlimit="8" fill="#C55A11"/><text font-family="JetBrains Mono,JetBrains Mono_MSFontService,sans-serif" font-weight="500" font-size="21" transform="translate(995.867 276)">Trap<tspan x="-19.2467" y="25">Handler</tspan><tspan x="0" y="51">Call</tspan><tspan x="-6.41333" y="77">Stack</tspan><tspan x="19.2533" y="102">A</tspan></text><rect x="1093.5" y="93.5001" width="117" height="529" stroke="#000000" stroke-width="1.33333" stroke-miterlimit="8" stroke-opacity="0.988235" fill="#FFFFFF"/><rect x="1093.5" y="93.5001" width="117" height="106" stroke="#2F528F" stroke-width="1.33333" stroke-miterlimit="8" fill="#4472C4"/><text font-family="JetBrains Mono,JetBrains Mono_MSFontService,sans-serif" font-weight="500" font-size="21" transform="translate(1126 127)">Trap<tspan x="-19.2467" y="25">Context</tspan><tspan x="19.2533" y="51">B</tspan></text><rect x="1093.5" y="199.5" width="117" height="169" stroke="#2F528F" stroke-width="1.33333" stroke-miterlimit="8" fill="#FFC000"/><text font-family="JetBrains Mono,JetBrains Mono_MSFontService,sans-serif" font-weight="500" font-size="21" transform="translate(1126 239)">Trap<tspan x="-19.2467" y="25">Handler</tspan><tspan x="0" y="51">Call</tspan><tspan x="-6.41333" y="77">Stack</tspan><tspan x="19.2533" y="102">B</tspan></text><rect x="1093.5" y="368.5" width="117" height="106" stroke="#2F528F" stroke-width="1.33333" stroke-miterlimit="8" fill="#00B050"/><text font-family="JetBrains Mono,JetBrains Mono_MSFontService,sans-serif" font-weight="500" font-size="21" transform="translate(1106.75 415)">task_cx<tspan x="38.5" y="25">B</tspan></text><rect x="963.5" y="441.5" width="117" height="106" stroke="#2F528F" stroke-width="1.33333" stroke-miterlimit="8" fill="#00B050"/><text font-family="JetBrains Mono,JetBrains Mono_MSFontService,sans-serif" font-weight="500" font-size="21" transform="translate(976.452 488)">task_cx<tspan x="38.5" y="25">A</tspan></text><path d="M1210.5 474.167 1245.43 474.167 1245.43 474.833 1210.5 474.833ZM1244.1 470.5 1252.1 474.5 1244.1 478.5Z"/><text font-family="JetBrains Mono,JetBrains Mono_MSFontService,sans-serif" font-weight="500" font-size="21" transform="translate(1215.67 460)">sp</text><rect x="1014.5" y="23.5001" width="132" height="56" stroke="#2F528F" stroke-width="1.33333" stroke-miterlimit="8" fill="#7030A0"/><text font-family="JetBrains Mono,JetBrains Mono_MSFontService,sans-serif" font-weight="500" font-size="21" transform="translate(1060.7 58)">CPU</text><path d="M1210.7 420.067 1234.7 420.067 1233.7 421.067 1233.7 51 1234.7 52 1152.67 52 1152.67 50 1235.7 50 1235.7 422.067 1210.7 422.067ZM1154 55 1146 51 1154 47Z"/><text font-family="Cambria Math,Cambria Math_MSFontService,sans-serif" font-weight="400" font-size="24" transform="translate(688.112 664)">sp<tspan x="30.3333" y="0">←</tspan><tspan x="57.1666" y="0">b.task_cx_ptr</tspan><tspan font-family="Consolas,Consolas_MSFontService,sans-serif" x="-46" y="28">o</tspan><tspan font-family="Consolas,Consolas_MSFontService,sans-serif" x="-32.8334" y="28">r </tspan><tspan x="-6.5" y="28">sp</tspan><tspan x="23.8333" y="28">←</tspan><tspan x="50.6666" y="28">∗(b.task_cx_ptr2)</tspan><tspan font-family="JetBrains Mono,JetBrains Mono_MSFontService,sans-serif" font-weight="500" font-size="21" x="-340.587" y="-588">Save</tspan><tspan font-family="JetBrains Mono,JetBrains Mono_MSFontService,sans-serif" font-weight="500" font-size="21" x="473.366" y="-587">Load</tspan><tspan font-family="JetBrains Mono,JetBrains Mono_MSFontService,sans-serif" font-weight="500" font-size="21" x="-659.312" y="-616">[1]</tspan><tspan font-family="JetBrains Mono,JetBrains Mono_MSFontService,sans-serif" font-weight="500" font-size="21" x="-132.411" y="-616">[2]</tspan><tspan font-family="JetBrains Mono,JetBrains Mono_MSFontService,sans-serif" font-weight="500" font-size="21" x="160.856" y="-616">[3]</tspan><tspan font-family="JetBrains Mono,JetBrains Mono_MSFontService,sans-serif" font-weight="500" font-size="21" x="280.394" y="-616">[4]</tspan></text></g></svg>